# File created by Blade
# Date/Time:  Thu Jan 22 16:36:34 2015
#---------------------------------------------------------
:version 1.10
:name HOM
:units
  mass 1.0
  length 1.000000
  angle deg
:documentation
     Acclaim Skeleton File
:root
   axis xyz
   order TX TY TZ RX RY RZ
   position 0.000000 0.000000 0.000000
   orientation 0 0 0
:bonedata
   begin
      id 1
      name RightUpLeg_dum
      direction -1.000000 0.000000 0.000000
      length 3.766986
      axis 0.0 0.0 0.0 xyz
   end
   begin
      id 2
      name LeftUpLeg_dum
      direction 1.000000 0.000000 0.000000
      length 3.766986
      axis 0.0 0.0 0.0 xyz
   end
   begin
      id 3
      name Spine_dum
      direction 0.000000 1.000000 0.000000
      length 7.779697
      axis 0.0 0.0 0.0 xyz
   end
   begin
      id 4
      name RightUpLeg
      direction 0.000000 -1.000000 0.000000
      length 18.017682
      axis 0.0 0.0 0.0 xyz
      dof rx ry rz
   end
   begin
      id 5
      name RightLeg
      direction 0.000000 -1.000000 0.000000
      length 16.881075
      axis 0.0 0.0 0.0 xyz
      dof rx ry rz
   end
   begin
      id 6
      name RightFoot
      direction 0.000000 -0.258819 0.965926
      length 5.770812
      axis 15.0 0.0 0.0 xyz
      dof rx ry rz
   end
   begin
      id 7
      name RightToeBase
      direction 0.000000 0.000000 1.000000
      length 2.952750
      axis 0.0 0.0 0.0 xyz
      dof rx ry rz
   end
   begin
      id 8
      name LeftUpLeg
      direction 0.000000 -1.000000 0.000000
      length 18.017682
      axis 0.0 0.0 0.0 xyz
      dof rx ry rz
   end
   begin
      id 9
      name LeftLeg
      direction 0.000000 -1.000000 0.000000
      length 16.881075
      axis 0.0 0.0 0.0 xyz
      dof rx ry rz
   end
   begin
      id 10
      name LeftFoot
      direction 0.000000 -0.258819 0.965926
      length 5.770812
      axis 15.0 0.0 0.0 xyz
      dof rx ry rz
   end
   begin
      id 11
      name LeftToeBase
      direction 0.000000 0.000000 1.000000
      length 2.952750
      axis 0.0 0.0 0.0 xyz
      dof rx ry rz
   end
   begin
      id 12
      name Spine
      direction 0.000000 1.000000 0.000000
      length 0.000000
      axis 0.0 0.0 0.0 xyz
      dof rx ry rz
   end
   begin
      id 13
      name Spine_dum1
      direction 0.000000 1.000000 0.000000
      length 10.941760
      axis 0.0 0.0 0.0 xyz
   end
   begin
      id 14
      name Spine_dum2
      direction 0.000000 1.000000 0.000000
      length 10.941760
      axis 0.0 0.0 0.0 xyz
   end
   begin
      id 15
      name Spine_dum3
      direction 0.000000 1.000000 0.000000
      length 16.646042
      axis 0.0 0.0 0.0 xyz
   end
   begin
      id 16
      name RightShoulder
      direction -1.000000 0.000000 0.000000
      length 7.708937
      axis 0.0 0.0 90.0 xyz
      dof rx ry rz
   end
   begin
      id 17
      name RightArm
      direction -1.000000 0.000000 0.000000
      length 11.521345
      axis 0.0 0.0 90.0 xyz
      dof rx ry rz
   end
   begin
      id 18
      name RightForeArm
      direction -1.000000 0.000000 0.000000
      length 10.175898
      axis 0.0 0.0 90.0 xyz
      dof ry rz rx
   end
   begin
      id 19
      name RightHand
      direction -1.000000 0.000000 0.000000
      length 0.000000
      axis 0.0 0.0 90.0 xyz
      dof rx ry rz
   end
   begin
      id 20
      name RightHand_dum1
      direction -1.000000 0.000000 0.000000
      length 3.937000
      axis 0.0 0.0 90.0 xyz
   end
   begin
      id 21
      name RightHand_dum2
      direction 0.000000 0.000000 0.000000
      length 0.000000
      axis 0.0 0.0 90.0 xyz
   end
   begin
      id 22
      name RightHandThumb1
      direction 0.000000 0.000000 1.000000
      length 3.937000
      axis 0.0 0.0 90.0 xyz
      dof rx rz ry
   end
   begin
      id 23
      name LeftShoulder
      direction 1.000000 0.000000 0.000000
      length 7.708937
      axis 0.0 0.0 -90.0 xyz
      dof rx ry rz
   end
   begin
      id 24
      name LeftArm
      direction 1.000000 0.000000 0.000000
      length 11.521345
      axis 0.0 0.0 -90.0 xyz
      dof rx ry rz
   end
   begin
      id 25
      name LeftForeArm
      direction 1.000000 0.000000 0.000000
      length 10.175898
      axis 0.0 0.0 -90.0 xyz
      dof ry rz rx
   end
   begin
      id 26
      name LeftHand
      direction 1.000000 0.000000 0.000000
      length 0.000000
      axis 0.0 0.0 -90.0 xyz
      dof rx ry rz
   end
   begin
      id 27
      name LeftHand_dum1
      direction 1.000000 0.000000 0.000000
      length 3.937000
      axis 0.0 0.0 -90.0 xyz
   end
   begin
      id 28
      name LeftHand_dum2
      direction 0.000000 0.000000 0.000000
      length 0.000000
      axis 0.0 0.0 -90.0 xyz
   end
   begin
      id 29
      name LeftHandThumb1
      direction 0.000000 0.000000 1.000000
      length 3.937000
      axis 0.0 0.0 -90.0 xyz
      dof rx rz ry
   end
   begin
      id 30
      name Head
      direction 0.000000 1.000000 0.000000
      length 4.527550
      axis 0.0 0.0 0.0 xyz
      dof rx ry rz
   end
:hierarchy
   begin
      root RightUpLeg_dum LeftUpLeg_dum Spine_dum
      RightUpLeg_dum RightUpLeg
      LeftUpLeg_dum LeftUpLeg
      Spine_dum Spine
      RightUpLeg RightLeg
      RightLeg RightFoot
      RightFoot RightToeBase
      LeftUpLeg LeftLeg
      LeftLeg LeftFoot
      LeftFoot LeftToeBase
      Spine Spine_dum1 Spine_dum2 Spine_dum3
      Spine_dum1 RightShoulder
      Spine_dum2 LeftShoulder
      Spine_dum3 Head
      RightShoulder RightArm
      RightArm RightForeArm
      RightForeArm RightHand
      RightHand RightHand_dum1 RightHand_dum2
      RightHand_dum2 RightHandThumb1
      LeftShoulder LeftArm
      LeftArm LeftForeArm
      LeftForeArm LeftHand
      LeftHand LeftHand_dum1 LeftHand_dum2
      LeftHand_dum2 LeftHandThumb1
   end

# File created by Blade
# Date/Time:  Thu Jan 22 16:36:26 2015
# Frame Rate: 120.000 fps
#------------------------------------------------------
:FULLY-SPECIFIED
:DEGREES
133
root 1.626999 37.176470 3.029891 -3.733217 -0.761722 1.911439
RightUpLeg 8.493083 -1.407345 -6.260885
RightLeg 0.814130 -0.000000 -0.000000
RightFoot -13.779935 -13.985773 18.817766
RightToeBase 13.911371 -0.000000 -0.000000
LeftUpLeg 8.861147 0.698687 0.239063
LeftLeg 0.574615 -0.000000 -0.000000
LeftFoot -10.937176 13.140331 -17.375089
LeftToeBase 8.933310 -0.000000 -0.000000
Spine 12.434279 -1.183208 -3.949281
RightShoulder -2.102393 -23.117781 -16.417216
RightArm 17.729565 -10.561056 57.014471
RightForeArm -0.291069 -0.000000 51.506724
RightHand 8.431273 -0.000000 -4.442843
RightHandThumb1 -24.326973 -0.000000 -32.862282
LeftShoulder -21.824728 32.859566 6.201644
LeftArm 40.164869 -9.775162 -59.492320
LeftForeArm 38.571934 -0.000000 44.462794
LeftHand -13.642437 0.000000 -16.359274
LeftHandThumb1 -26.253704 0.000000 33.147579
Head 8.018246 8.548962 4.991724
134
root 1.669209 37.178674 3.005319 -3.824948 -0.627403 1.940422
RightUpLeg 8.399547 -1.514986 -6.359063
RightLeg 1.159198 -0.000000 -0.000000
RightFoot -13.888824 -13.989063 18.861964
RightToeBase 13.854466 -0.000000 -0.000000
LeftUpLeg 8.821909 0.605770 0.139766
LeftLeg 0.729380 -0.000000 -0.000000
LeftFoot -10.966147 13.124598 -17.327137
LeftToeBase 8.974162 -0.000000 -0.000000
Spine 12.963683 -1.208209 -4.089191
RightShoulder -2.144097 -23.320014 -16.105371
RightArm 18.073837 -11.579467 57.997814
RightForeArm -0.669129 0.000000 51.369712
RightHand 8.428025 -0.000000 -4.637567
RightHandThumb1 -24.326973 -0.000000 -32.862282
LeftShoulder -21.820501 32.997551 6.027368
LeftArm 40.647482 -8.539678 -59.947290
LeftForeArm 38.964254 -0.000000 44.553085
LeftHand -13.595931 -0.000000 -16.377418
LeftHandThumb1 -26.253704 0.000000 33.147579
Head 8.123630 8.450371 5.168430
135
root 1.713504 37.181612 2.979399 -3.908118 -0.472251 1.976436
RightUpLeg 8.306272 -1.628570 -6.467664
RightLeg 1.492228 -0.000000 -0.000000
RightFoot -14.002799 -13.985008 18.944607
RightToeBase 13.862652 -0.000000 -0.000000
LeftUpLeg 8.752738 0.481440 0.029324
LeftLeg 0.921266 -0.000000 -0.000000
LeftFoot -10.991317 13.092138 -17.279623
LeftToeBase 8.881669 -0.000000 -0.000000
Spine 13.505441 -1.255487 -4.232411
RightShoulder -2.186925 -23.441262 -15.798121
RightArm 18.313562 -12.560056 59.021753
RightForeArm -1.016650 -0.000000 51.219217
RightHand 8.364944 0.000000 -4.819408
RightHandThumb1 -24.326973 -0.000000 -32.862282
LeftShoulder -21.777804 33.054909 5.887466
LeftArm 41.028725 -7.327541 -60.380053
LeftForeArm 39.134074 0.000000 44.686816
LeftHand -13.489899 -0.000000 -16.547592
LeftHandThumb1 -26.253704 0.000000 33.147579
Head 8.222102 8.346601 5.356563
136
root 1.759526 37.183988 2.949136 -3.967029 -0.305009 2.017117
RightUpLeg 8.160692 -1.749161 -6.585164
RightLeg 1.878774 -0.000000 -0.000000
RightFoot -14.131246 -13.978594 19.010880
RightToeBase 13.833054 -0.000000 -0.000000
LeftUpLeg 8.626752 0.419388 -0.080853
LeftLeg 1.160529 -0.000000 -0.000000
LeftFoot -11.029416 12.998411 -17.220524
LeftToeBase 8.950764 -0.000000 -0.000000
Spine 14.044741 -1.288981 -4.376397
RightShoulder -2.291268 -23.567538 -15.483727
RightArm 18.562933 -13.527979 60.049309
RightForeArm -1.257063 -0.000000 50.997234
RightHand 8.369111 -0.000000 -5.062346
RightHandThumb1 -24.326973 -0.000000 -32.862282
LeftShoulder -21.680798 33.065934 5.792314
LeftArm 41.388898 -6.134586 -60.844188
LeftForeArm 39.309743 -0.000000 44.767097
LeftHand -13.291167 -0.000000 -16.952687
LeftHandThumb1 -26.253704 0.000000 33.147579
Head 8.292651 8.203516 5.528335
137
root 1.805804 37.185868 2.917436 -4.037348 -0.120020 2.057334
RightUpLeg 8.006329 -1.914410 -6.698685
RightLeg 2.306021 -0.000000 -0.000000
RightFoot -14.279147 -13.987362 19.053758
RightToeBase 13.803565 -0.000000 -0.000000
LeftUpLeg 8.497051 0.333124 -0.194248
LeftLeg 1.424152 -0.000000 -0.000000
LeftFoot -11.067582 12.923377 -17.134019
LeftToeBase 8.909242 -0.000000 -0.000000
Spine 14.624394 -1.364061 -4.527763
RightShoulder -2.386514 -23.624182 -15.186960
RightArm 18.774791 -14.566707 61.045217
RightForeArm -1.257027 0.000000 50.740311
RightHand 8.368597 -0.000000 -5.492570
RightHandThumb1 -24.326973 -0.000000 -32.862282
LeftShoulder -21.738512 33.261323 5.523595
LeftArm 42.027855 -5.002882 -61.222132
LeftForeArm 39.540643 -0.000000 44.781269
LeftHand -13.364419 -0.000000 -16.706151
LeftHandThumb1 -26.253704 0.000000 33.147579
Head 8.343576 8.081369 5.715905
138
root 1.853097 37.188147 2.889947 -4.141408 0.104518 2.084845
RightUpLeg 7.910756 -2.129478 -6.812509
RightLeg 2.715784 -0.000000 -0.000000
RightFoot -14.410210 -13.963825 19.125304
RightToeBase 13.771018 -0.000000 -0.000000
LeftUpLeg 8.415473 0.200624 -0.302846
LeftLeg 1.666128 -0.000000 -0.000000
LeftFoot -11.110074 12.866451 -17.042097
LeftToeBase 8.910670 -0.000000 -0.000000
Spine 15.255463 -1.488408 -4.668173
RightShoulder -2.452422 -23.716024 -14.896213
RightArm 18.944590 -15.480869 62.050940
RightForeArm -1.184059 0.000000 50.509326
RightHand 8.338257 0.000000 -5.823862
RightHandThumb1 -24.326973 -0.000000 -32.862282
LeftShoulder -21.678319 33.235608 5.429518
LeftArm 42.372264 -3.776611 -61.684360
LeftForeArm 39.666469 -0.000000 44.837162
LeftHand -13.496704 -0.000000 -16.382155
LeftHandThumb1 -26.253704 0.000000 33.147579
Head 8.406754 8.002104 5.901027
139
root 1.903119 37.190003 2.862181 -4.256831 0.253896 2.142929
RightUpLeg 7.788434 -2.211622 -6.948791
RightLeg 3.167665 -0.000000 -0.000000
RightFoot -14.571338 -13.979193 19.219136
RightToeBase 13.705003 -0.000000 -0.000000
LeftUpLeg 8.352902 0.202986 -0.428860
LeftLeg 1.908079 -0.000000 -0.000000
LeftFoot -11.128314 12.745951 -16.963223
LeftToeBase 8.848649 -0.000000 -0.000000
Spine 15.926379 -1.563555 -4.851397
RightShoulder -2.532865 -23.843408 -14.570874
RightArm 19.171695 -16.393575 62.925238
RightForeArm -1.041448 0.000000 50.285896
RightHand 8.362044 -0.000000 -6.105783
RightHandThumb1 -24.326973 -0.000000 -32.862282
LeftShoulder -21.672133 33.241981 5.271860
LeftArm 42.747542 -2.634979 -62.093773
LeftForeArm 39.832097 -0.000000 44.935921
LeftHand -13.498497 -0.000000 -16.517508
LeftHandThumb1 -26.253704 0.000000 33.147579
Head 8.412839 7.958615 6.103092
